<?xml version="1.0" encoding="UTF-8" ?>
<!DOCTYPE svg PUBLIC "-//W3C//DTD SVG 1.1//EN" "http://www.w3.org/Graphics/SVG/1.1/DTD/svg11.dtd">
<svg width="32pt" height="32pt" viewBox="0 0 32 32" version="1.1" xmlns="http://www.w3.org/2000/svg">
<g>
<path d=" M 0.08 4.02 C -0.82 1.55 1.54 -0.82 4.01 0.08 C 8.23 3.76 11.96 7.96 16.00 11.83 C 20.04 7.96 23.77 3.76 27.99 0.08 C 30.46 -0.82 32.82 1.55 31.92 4.02 C 28.23 8.23 24.04 11.97 20.17 16.00 C 24.04 20.03 28.24 23.77 31.92 27.99 C 32.82 30.46 30.45 32.82 27.98 31.92 C 23.77 28.23 20.03 24.04 16.00 20.17 C 11.96 24.04 8.23 28.24 4.01 31.92 C 1.54 32.82 -0.82 30.46 0.08 27.99 C 3.76 23.77 7.96 20.04 11.83 16.00 C 7.96 11.97 3.76 8.23 0.08 4.02 Z" />
</g>
</svg>
