<?xml version="1.0" encoding="UTF-8" ?>
<!DOCTYPE svg PUBLIC "-//W3C//DTD SVG 1.1//EN" "http://www.w3.org/Graphics/SVG/1.1/DTD/svg11.dtd">
<svg width="64pt" height="64pt" viewBox="0 0 64 64" version="1.1" xmlns="http://www.w3.org/2000/svg">
  <g>
    <path d=" M 19.24 0.00 L 21.70 0.00 C 22.04 0.48 22.73 1.43 23.07 1.91 C 21.17 3.00 19.27 4.10 17.36 5.18 C 17.07 4.60 16.48 3.43 16.19 2.85 C 17.71 1.89 19.23 0.94 20.77 0.01 L 19.24 0.00 Z" />
    <path d=" M 4.81 15.13 C 13.23 10.30 21.63 5.41 30.05 0.57 C 34.60 1.77 39.15 2.99 43.69 4.23 C 45.64 7.55 47.50 10.92 49.50 14.21 C 38.41 21.16 26.92 27.51 15.53 33.97 C 11.94 27.70 8.10 21.56 4.81 15.13 Z" />
    <path d=" M 30.64 28.08 C 32.89 27.21 36.44 22.92 37.65 27.23 C 35.77 28.32 33.90 29.40 32.02 30.48 C 31.68 29.88 30.99 28.68 30.64 28.08 Z" />
    <path d=" M 29.43 34.78 C 32.96 32.66 36.43 30.42 40.14 28.63 C 41.97 29.25 42.39 31.63 43.49 33.05 C 42.06 34.05 40.27 34.71 39.25 36.19 C 38.32 38.09 39.89 39.82 40.68 41.43 C 43.98 46.81 46.82 52.48 50.29 57.75 C 52.30 60.17 55.16 57.65 57.21 56.67 C 57.46 57.29 57.96 58.53 58.21 59.15 C 55.45 60.79 52.72 62.49 49.88 64.00 L 48.88 64.00 C 43.90 55.61 39.15 47.07 34.18 38.66 C 33.65 37.22 32.31 37.08 30.96 37.28 C 30.58 36.66 29.81 35.41 29.43 34.78 Z" />
    <path d=" M 41.27 37.09 C 42.12 36.61 43.81 35.63 44.66 35.15 C 48.43 41.62 52.15 48.13 55.91 54.62 C 54.83 55.27 53.74 55.92 52.66 56.58 C 50.48 54.54 49.46 51.63 47.86 49.16 C 45.70 45.12 42.96 41.37 41.27 37.09 Z" />
  </g>
</svg>
