<?xml version="1.0" encoding="UTF-8" ?>
<!DOCTYPE svg PUBLIC "-//W3C//DTD SVG 1.1//EN" "http://www.w3.org/Graphics/SVG/1.1/DTD/svg11.dtd">
<svg width="64pt" height="64pt" viewBox="0 0 64 64" version="1.1" xmlns="http://www.w3.org/2000/svg">
  <g>
    <path d=" M 19.61 0.00 L 43.80 0.00 C 43.84 2.16 43.86 4.31 43.88 6.47 C 41.17 6.47 38.47 6.49 35.76 6.46 C 35.77 8.29 35.78 10.12 35.80 11.95 C 39.90 12.70 43.88 14.22 47.22 16.77 C 48.59 15.39 49.97 14.00 51.35 12.61 C 53.24 14.52 55.14 16.41 57.09 18.27 C 55.76 19.66 54.41 21.03 53.06 22.40 C 56.97 28.12 58.83 35.21 57.66 42.10 C 55.95 53.98 45.08 63.58 33.11 64.00 L 30.63 64.00 C 19.79 63.71 9.76 55.94 6.62 45.59 C 1.18 31.08 12.60 13.97 27.66 11.96 C 27.67 10.12 27.67 8.28 27.67 6.43 C 24.97 6.46 22.28 6.48 19.59 6.51 C 19.60 4.34 19.61 2.17 19.61 0.00 M 25.54 15.79 C 18.45 17.74 12.48 23.28 10.06 30.23 C 7.27 37.77 8.98 46.70 14.28 52.72 C 19.60 59.06 28.47 62.04 36.55 60.28 C 47.88 58.07 56.32 46.43 54.57 34.95 C 53.22 21.54 38.45 11.70 25.54 15.79 Z" />
    <path d=" M 13.00 39.05 C 12.03 28.49 21.32 18.88 31.81 18.88 C 31.93 25.14 31.87 31.40 31.82 37.67 C 36.26 33.22 40.82 28.87 45.09 24.26 C 48.94 28.13 51.24 33.60 50.77 39.09 C 50.41 48.34 42.20 56.39 32.97 56.67 C 22.93 57.56 13.44 49.08 13.00 39.05 Z" />
  </g>
</svg>
