<svg height="346.667" viewBox="0 0 260 260" width="346.667" xmlns="http://www.w3.org/2000/svg"><path d="M122.5 3.1c-3.3 1.7-9.6 5.3-14 7.9s-10 5.9-12.5 7.2c-5.4 3.1-73 42.2-75.8 43.9-1.2.7-2.5 2.4-3.1 3.6-1.5 3.4-1.5 125.3 0 128.6.6 1.4 3 3.5 5.3 4.8 2.2 1.3 4.9 2.8 5.8 3.4 1 .5 23.3 13.4 49.5 28.6 26.3 15.3 49.2 28 50.8 28.3 2.5.5 4.9-.4 13.5-5.5 5.8-3.4 12.3-7.1 14.5-8.4 9.8-5.6 80.4-46.4 82.7-47.8.9-.6 2.1-2.2 2.7-3.4 1.5-3.3 1.5-125.3 0-128.6-1.2-2.6-1.7-2.9-30-19.2-11.2-6.5-26.2-15.1-33.3-19.3-7.2-4.1-14.4-8.2-16-9.2-1.7-1-8.9-5.1-16.1-9.3C139.4 4.5 132.4.9 131 .5c-1.8-.4-4.3.3-8.5 2.6zM210 70.6c4.9 2.5 9.2 4.9 9.4 5.3.3.4-5.6 6.7-13.2 13.9-7.5 7.2-16.6 15.8-20.2 19.2s-11.7 11.2-18.1 17.4c-6.3 6.1-19.4 18.5-28.9 27.6-18.3 17.4-24 22.9-33.9 32.4-4.8 4.6-6.4 5.6-7.5 4.7-.8-.6-4.5-5.8-8.4-11.5-7.7-11.3-36-51.8-44.2-63.4-2.9-4-4.9-7.6-4.5-8s2.5-.8 4.8-.8c2.3-.1 12.9-.4 23.5-.8 10.6-.3 19.7-.8 20.1-1 .9-.6 4.4 3.1 8 8.4 3.9 5.7 5 6.2 8.5 4.1 4.1-2.5 13.1-7.4 33.1-18.1 4.4-2.4 9.7-5.4 11.7-6.7 2.1-1.2 4-2.3 4.3-2.3s4-2 8.3-4.3c8.6-4.9 16.1-9 27.2-15 4.1-2.2 7.9-4.4 8.5-4.8 1.4-1.4 2-1.2 11.5 3.7z"/></svg>