<svg height="1024pt" viewBox="0 0 1024 1024" width="1024pt" xmlns="http://www.w3.org/2000/svg"><path d="m509.89 0h3.4c5.32.29 10.56 1.87 15.15 4.61 136.35 78.7 272.72 157.39 409.08 236.09 3.7 2.19 7.61 4.1 10.92 6.89 7.1 5.95 11.36 15.1 11.3 24.37.01 158.01 0 316.02 0 474.02.08 5.66.19 11.49-1.87 16.87-2.68 7.56-8.37 13.88-15.44 17.63-137.59 79.38-275.16 158.78-412.73 238.2-4.75 2.96-10.14 4.86-15.73 5.32h-3.39c-5.32-.27-10.54-1.82-15.12-4.53-136.32-78.66-272.63-157.33-408.94-236-3.56-2.11-7.29-3.96-10.55-6.52-7.49-5.93-12.03-15.37-11.96-24.92 0-160.03 0-320.06 0-480.09-.04-8.63 3.64-17.18 9.91-23.1 3.63-3.54 8.26-5.74 12.58-8.3 136.33-78.68 272.66-157.35 408.98-236.03 4.38-2.6 9.35-4.07 14.41-4.51m-236.62 179.19c19.16 71.49 38.31 142.97 57.46 214.46 13.4-.77 26.81-.67 40.23-.65 4.09 4.21 8.43 8.19 12.38 12.54 8.45 11.5 16.76 23.1 25.14 34.66 69.45-38.41 138.83-76.94 208.29-115.31-23.51-87.89-47.08-175.76-70.62-263.63-11.44-6.59-22.86-13.2-34.3-19.78-79.51 45.92-159.06 91.8-238.58 137.71m563.26 73.66c14.29 7.68 28.69 15.17 42.94 22.94 4.35 3.82 8.23 8.17 12.4 12.19v24.15c-10.21 10.39-20.78 20.41-31.32 30.47 21.06 78.69 42.13 157.37 63.17 236.07.05-95.9 0-191.8.02-287.69.09-4.53-.78-9.02-2.41-13.23-30.82-17.72-61.59-35.53-92.38-53.29 2.5 9.47 5.06 18.92 7.58 28.39m-435.54 222.17c-14-19.34-28-38.67-42-58-67.64 2.7-135.29 5.35-202.94 8.01 77.68 110.95 155.29 221.94 232.96 332.9 159.7-152.59 319.28-305.31 478.96-457.92-25.65-13.67-51.32-27.31-76.97-40.98-130 72-260.01 143.99-390.01 215.99m-300.98 81.02v177.95c-.03 4.22.86 8.4 2.42 12.31 30.82 17.7 61.58 35.52 92.37 53.28-20.57-76.88-41.14-153.75-61.72-230.63-10.9-41.19-22.26-82.27-32.87-123.54-.46 36.87-.07 73.75-.2 110.63m327.89 200.25c18.81 70.11 37.55 140.24 56.38 210.34 9.17 5.32 18.39 10.56 27.53 15.93 81.21-46.76 162.33-93.7 243.53-140.49-28.3-105.88-56.73-211.72-85.06-317.59-80.74 77.32-161.6 154.52-242.38 231.81z"/></svg>